<?xml version="1.0" standalone="no"?>
<!DOCTYPE svg PUBLIC "-//W3C//DTD SVG 20010904//EN"
 "http://www.w3.org/TR/2001/REC-SVG-20010904/DTD/svg10.dtd">
<svg version="1.0" xmlns="http://www.w3.org/2000/svg"
 width="439.000000pt" height="439.000000pt" viewBox="0 0 439.000000 439.000000"
 preserveAspectRatio="xMidYMid meet">
<metadata>
Created by potrace 1.11, written by Peter Selinger 2001-2013
</metadata>
<g transform="translate(0.000000,439.000000) scale(0.100000,-0.100000)"
fill="#000000" stroke="none">
<path d="M0 2195 l0 -2195 2195 0 2195 0 0 2195 0 2195 -2195 0 -2195 0 0
-2195z m1803 698 c-30 -76 -141 -358 -248 -628 -107 -269 -230 -580 -273 -690
l-79 -200 -78 -3 c-71 -3 -76 -1 -73 16 2 11 147 384 323 831 l320 811 81 0
82 0 -55 -137z m743 30 c-24 -60 -132 -333 -241 -608 -109 -275 -237 -599
-286 -720 l-87 -220 -76 -3 c-56 -2 -76 0 -76 10 0 7 32 93 71 193 39 99 156
394 259 655 103 261 216 548 251 637 l64 163 82 0 81 0 -42 -107z m740 0 c-24
-60 -88 -223 -144 -363 -56 -140 -184 -464 -285 -720 l-184 -465 -77 -3 c-57
-2 -76 0 -76 10 0 7 31 92 69 188 95 239 456 1153 522 1322 l54 138 81 0 82 0
-42 -107z"/>
</g>
</svg>
